[Header]
FileType HTR
DataType HTRS
FileVersion 1
NumSegments 48
NumFrames 3
DataFrameRate 30
EulerRotationOrder ZYX
CalibrationUnits mm
RotationUnits Degrees
GlobalAxisofGravity Y
BoneLengthAxis Y
ScaleFactor 1.0
[SegmentNames&Hierarchy]
Wolf	GLOBAL
Becken	Wolf
Bauch	Becken
Bauch_001	Bauch
Brust	Bauch_001
Hals	Brust
Kopf_002	Hals
Kopf	Kopf_002
Unterkiefer	Kopf
Hals_fett	Unterkiefer
Maulunten	Unterkiefer
Mauloben	Kopf
MundW_L	Kopf
MundW_R	Kopf
Augen_con	Kopf
IK_Aug_R	Augen_con
IK_Aug_L	Augen_con
Aug_R	Kopf
aug_L	Kopf
Ohr_L	Kopf
Ohr_R	Kopf
Braun_O_L	Kopf
Braun_O_R	Kopf
aug_lied_O_L	Kopf
aug_lied_O_R	Kopf
aug_lied_U_L	Kopf
aug_lied_U_R	Kopf
Bauch_003	Brust
Schalterplatte_L	Bauch_003
Oberarm_L	Schalterplatte_L
Unterarm_L	Oberarm_L
Vorderpfote_L	Unterarm_L
Schalterplatte_R	Bauch_003
Oberarm_R	Schalterplatte_R
Unterarm_R	Oberarm_R
Vorderpfote_R	Unterarm_R
Schwanz	Becken
Schwanz_001	Schwanz
Schwanz_002	Schwanz_001
Schwanz_003	Schwanz_002
Oberschenkel_L	Becken
Unterschenkel_L	Oberschenkel_L
Pfote1_L	Unterschenkel_L
Pfote2_L	Pfote1_L
Oberschenkel_R	Becken
Unterschenkel_R	Oberschenkel_R
Pfote1_R	Unterschenkel_R
Pfote2_R	Pfote1_R
[BasePosition]
Wolf	0	0	0	0	0	0	1
Becken	0	0	0	0	0	0	1
Bauch	0	0	0	0	0	0	1
Bauch_001	0	0	0	0	0	0	1
Brust	0	0	0	0	0	0	1
Hals	0	0	0	0	0	0	1
Kopf_002	0	0	0	0	0	0	1
Kopf	0	0	0	0	0	0	1
Unterkiefer	0	0	0	0	0	0	1
Hals_fett	0	0	0	0	0	0	1
Maulunten	0	0	0	0	0	0	1
Mauloben	0	0	0	0	0	0	1
MundW_L	0	0	0	0	0	0	1
MundW_R	0	0	0	0	0	0	1
Augen_con	0	0	0	0	0	0	1
IK_Aug_R	0	0	0	0	0	0	1
IK_Aug_L	0	0	0	0	0	0	1
Aug_R	0	0	0	0	0	0	1
aug_L	0	0	0	0	0	0	1
Ohr_L	0	0	0	0	0	0	1
Ohr_R	0	0	0	0	0	0	1
Braun_O_L	0	0	0	0	0	0	1
Braun_O_R	0	0	0	0	0	0	1
aug_lied_O_L	0	0	0	0	0	0	1
aug_lied_O_R	0	0	0	0	0	0	1
aug_lied_U_L	0	0	0	0	0	0	1
aug_lied_U_R	0	0	0	0	0	0	1
Bauch_003	0	0	0	0	0	0	1
Schalterplatte_L	0	0	0	0	0	0	1
Oberarm_L	0	0	0	0	0	0	1
Unterarm_L	0	0	0	0	0	0	1
Vorderpfote_L	0	0	0	0	0	0	1
Schalterplatte_R	0	0	0	0	0	0	1
Oberarm_R	0	0	0	0	0	0	1
Unterarm_R	0	0	0	0	0	0	1
Vorderpfote_R	0	0	0	0	0	0	1
Schwanz	0	0	0	0	0	0	1
Schwanz_001	0	0	0	0	0	0	1
Schwanz_002	0	0	0	0	0	0	1
Schwanz_003	0	0	0	0	0	0	1
Oberschenkel_L	0	0	0	0	0	0	1
Unterschenkel_L	0	0	0	0	0	0	1
Pfote1_L	0	0	0	0	0	0	1
Pfote2_L	0	0	0	0	0	0	1
Oberschenkel_R	0	0	0	0	0	0	1
Unterschenkel_R	0	0	0	0	0	0	1
Pfote1_R	0	0	0	0	0	0	1
Pfote2_R	0	0	0	0	0	0	1
[Wolf]
34	0	0	0	-90	-0	0	1.0
35	0	0	0	-90	-0	0	1.0
36	0	0	0	-90	-0	0	1.0
[Becken]
34	0	0.5621799231	0.520412147	1.012292624	169.3806152	90.36395264	1.0
35	0	0.5621799231	0.5322081447	0.7704683542	169.3792725	90.27701569	1.0
36	0	0.5621799231	0.540320158	0.5123876929	169.3782043	90.18422699	1.0
[Bauch]
34	0.9404072165	7.335228958e-08	-0.3559131622	-9.70548399e-07	12.60522652	-8.885302805e-08	1.0
35	0.9404072165	7.335228958e-08	-0.3559131622	-9.70548399e-07	12.60522652	-8.885302805e-08	1.0
36	0.9404072165	7.335228958e-08	-0.3559131622	-9.70548399e-07	12.60522652	-8.885302805e-08	1.0
[Bauch_001]
34	1.081897616	8.323696221e-08	1.180524034e-08	-2.503413032e-09	2.360082865	-2.670307531e-08	1.0
35	1.081897616	8.323696221e-08	1.180524034e-08	-2.503413032e-09	2.360082865	-2.670307531e-08	1.0
36	1.081897616	8.323696221e-08	1.180524034e-08	-2.503413032e-09	2.360082865	-2.670307531e-08	1.0
[Brust]
34	1.069831252	8.440110832e-08	3.139576066e-08	5.110827715e-06	14.81906796	-3.549572648e-05	1.0
35	1.069831252	8.440110832e-08	3.139576066e-08	5.110827715e-06	15.29713249	-3.549572648e-05	1.0
36	1.069831252	8.440110832e-08	3.139576066e-08	5.110827715e-06	15.6258297	-3.549572648e-05	1.0
[Hals]
34	1.258022308	9.662471712e-08	0.6079561114	-4.810633527e-06	46.87745667	-2.341890877e-06	1.0
35	1.258022308	9.662471712e-08	0.6079561114	-4.810633527e-06	46.87745667	-2.341890877e-06	1.0
36	1.258022308	9.662471712e-08	0.6079561114	-4.810633527e-06	46.87745667	-2.341890877e-06	1.0
[Kopf_002]
34	1.752595186	3.012712114e-05	0.265181601	0.006653386634	-165.1497192	0.002557684667	1.0
35	1.752595186	3.012712114e-05	0.265181601	0.006653386634	-165.1497192	0.002557684667	1.0
36	1.752595186	3.012712114e-05	0.265181601	0.006653386634	-165.1497192	0.002557684667	1.0
[Kopf]
34	1.015782118	6.868503988e-08	-5.515175872e-08	0.0600313358	115.1146011	-0.03366047516	1.0
35	1.015782118	6.868503988e-08	-5.515175872e-08	0.05867527798	114.1586685	-0.03489172831	1.0
36	1.015782118	6.868503988e-08	-5.515175872e-08	0.05767848715	113.5016632	-0.03580307588	1.0
[Unterkiefer]
34	0.6370447874	0.004552732222	0.4060618579	5.412721634	-68.3888092	-3.093543291	1.0
35	0.6370447874	0.004552732222	0.4060618579	5.412721634	-68.3888092	-3.093543291	1.0
36	0.6370447874	0.004552732222	0.4060618579	5.412721634	-68.3888092	-3.093543291	1.0
[Hals_fett]
34	0.2998305857	0.007747137919	0.1206372604	-5.071650982	-59.35961151	5.585564613	1.0
35	0.2998305857	0.007747137919	0.1206372604	-5.071650982	-59.35961151	5.585564613	1.0
36	0.2998305857	0.007747137919	0.1206372604	-5.071650982	-59.35961151	5.585564613	1.0
[Maulunten]
34	0.0831861794	-0.007747565862	-0.1206544712	-3.322209358	38.97271347	-0.8718761206	1.0
35	0.0831861794	-0.007747565862	-0.1206544712	-3.322209358	38.97271347	-0.8718761206	1.0
36	0.0831861794	-0.007747565862	-0.1206544712	-3.322209358	38.97271347	-0.8718761206	1.0
[Mauloben]
34	0.9101490974	0.0004056713078	0.4003697634	-0.1032672822	-28.7776947	0.03543138877	1.0
35	0.9101490974	0.0004056713078	0.4003697634	-0.1032672822	-28.7776947	0.03543138877	1.0
36	0.9101490974	0.0004056713078	0.4003697634	-0.1032672822	-28.7776947	0.03543138877	1.0
[MundW_L]
34	0.673060894	-0.3618555963	0.3751283586	-179.8370972	-17.94885063	24.713974	1.0
35	0.673060894	-0.3618555963	0.3751283586	-179.8370972	-17.94885063	24.713974	1.0
36	0.673060894	-0.3618555963	0.3751283586	-179.8370972	-17.94885063	24.713974	1.0
[MundW_R]
34	0.6732419133	0.3627035022	0.3739836514	179.665329	-18.02427101	-24.69083595	1.0
35	0.6732419133	0.3627035022	0.3739836514	179.665329	-18.02427101	-24.69083595	1.0
36	0.6732419133	0.3627035022	0.3739836514	179.665329	-18.02427101	-24.69083595	1.0
[Augen_con]
34	1.807373166	-0.0001604110003	0.183581531	0.0982221961	157.1545258	0.02385941334	1.0
35	1.807373166	-0.0001604110003	0.183581531	0.0982221961	157.1545258	0.02385941334	1.0
36	1.807373166	-0.0001604110003	0.183581531	0.0982221961	157.1545258	0.02385941334	1.0
[IK_Aug_R]
34	0.3461295962	0.2943200469	-1.071020961e-07	-0.4194760025	-4.963055134	165.6946411	1.0
35	0.3461295962	0.2943200469	-1.071020961e-07	-0.4194760025	-4.963055134	165.6946411	1.0
36	0.3461295962	0.2943200469	-1.071020961e-07	-0.4194760025	-4.963055134	165.6946411	1.0
[IK_Aug_L]
34	0.3461301029	-0.2943200171	-1.967418939e-07	0.4194771945	-4.963055134	-165.6946411	1.0
35	0.3461301029	-0.2943200171	-1.967418939e-07	0.4194771945	-4.963055134	-165.6946411	1.0
36	0.3461301029	-0.2943200171	-1.967418939e-07	0.4194771945	-4.963055134	-165.6946411	1.0
[Aug_R]
34	1.035154939	0.2207805216	-0.09605780989	176.004776	-17.29167175	12.85548782	1.0
35	1.035154939	0.2207805216	-0.09605780989	176.004776	-17.29167175	12.85548782	1.0
36	1.035154939	0.2207805216	-0.09605780989	176.004776	-17.29167175	12.85548782	1.0
[aug_L]
34	1.03504467	-0.2215988934	-0.09535907209	-176.1891022	-17.33180046	-12.83102131	1.0
35	1.03504467	-0.2215988934	-0.09535907209	-176.1891022	-17.33180046	-12.83102131	1.0
36	1.03504467	-0.2215988934	-0.09535907209	-176.1891022	-17.33180046	-12.83102131	1.0
[Ohr_L]
34	0.6407766938	-0.3659991026	-0.6893324852	-24.34923935	53.07765961	-15.02013397	1.0
35	0.6407766938	-0.3659991026	-0.6893324852	-24.34923935	53.07765961	-15.02013397	1.0
36	0.6407766938	-0.3659991026	-0.6893324852	-24.34923935	53.07765961	-15.02013397	1.0
[Ohr_R]
34	0.640958488	0.36349985	-0.690484941	24.05785561	53.12415695	14.75856686	1.0
35	0.640958488	0.36349985	-0.690484941	24.05785561	53.12415695	14.75856686	1.0
36	0.640958488	0.36349985	-0.690484941	24.05785561	53.12415695	14.75856686	1.0
[Braun_O_L]
34	0.9801894426	-0.3706049323	-0.3292509615	-143.317215	-34.69636154	52.39493942	1.0
35	0.9801894426	-0.3706049323	-0.3292509615	-143.317215	-34.69636154	52.39493942	1.0
36	0.9801894426	-0.3706049323	-0.3292509615	-143.317215	-34.69636154	52.39493942	1.0
[Braun_O_R]
34	0.9803640842	0.3690741956	-0.3304226995	143.1826782	-34.83971405	-52.34676361	1.0
35	0.9803640842	0.3690741956	-0.3304226995	143.1826782	-34.83971405	-52.34676361	1.0
36	0.9803640842	0.3690741956	-0.3304226995	143.1826782	-34.83971405	-52.34676361	1.0
[aug_lied_O_L]
34	1.038882375	-0.3271433413	-0.1608109176	-175.8613434	-20.15596771	60.31667709	1.0
35	1.038882375	-0.3271433413	-0.1608109176	-175.8613434	-20.15596771	60.31667709	1.0
36	1.038882375	-0.3271433413	-0.1608109176	-175.8613434	-20.15596771	60.31667709	1.0
[aug_lied_O_R]
34	1.039044976	0.326115787	-0.1618431658	175.7657928	-20.31324005	-60.31218338	1.0
35	1.039044976	0.326115787	-0.1618431658	175.7657928	-20.31324005	-60.31218338	1.0
36	1.039044976	0.326115787	-0.1618431658	175.7657928	-20.31324005	-60.31218338	1.0
[aug_lied_U_L]
34	1.02191329	-0.3312865198	-0.1338392347	-159.8099365	-28.7482872	60.17462158	1.0
35	1.02191329	-0.3312865198	-0.1338392347	-159.8099365	-28.7482872	60.17462158	1.0
36	1.02191329	-0.3312865198	-0.1338392347	-159.8099365	-28.7482872	60.17462158	1.0
[aug_lied_U_R]
34	1.022078872	0.3303525448	-0.1348842829	159.7071381	-28.90532303	-60.15359116	1.0
35	1.022078872	0.3303525448	-0.1348842829	159.7071381	-28.90532303	-60.15359116	1.0
36	1.022078872	0.3303525448	-0.1348842829	159.7071381	-28.90532303	-60.15359116	1.0
[Bauch_003]
34	1.276869178	9.429641068e-08	-0.6079563498	-3.842957085e-06	-137.6799469	1.008550771e-05	1.0
35	1.276869178	9.429641068e-08	-0.6079563498	-3.842957085e-06	-137.6799469	1.008550771e-05	1.0
36	1.276869178	9.429641068e-08	-0.6079563498	-3.842957085e-06	-137.6799469	1.008550771e-05	1.0
[Schalterplatte_L]
34	0.930565834	-0.3890972733	0.05184832588	-54.16490936	78.16629028	-82.07798004	1.0
35	0.909134388	-0.3861786127	0.03155529499	-67.95400238	78.0509491	-96.16131592	1.0
36	0.8954918385	-0.3832599521	0.01460310072	-77.38259125	77.45333099	-105.8445282	1.0
[Oberarm_L]
34	1.418636799	1.443549991e-07	9.778887033e-08	-108.8109741	-63.31972504	129.942749	1.0
35	1.418636799	1.443549991e-07	9.778887033e-08	-110.0325317	-63.03294754	131.4003906	1.0
36	1.418636799	1.443549991e-07	9.778887033e-08	-109.4625092	-63.17052841	130.735611	1.0
[Unterarm_L]
34	2.028227329	8.847563748e-08	-3.725290298e-07	13.60440731	62.26086426	15.97654343	1.0
35	2.028227329	8.847563748e-08	-3.725290298e-07	14.01989841	62.25159073	16.98229027	1.0
36	2.028227329	8.847563748e-08	-3.725290298e-07	14.09369278	62.26927567	17.46170044	1.0
[Vorderpfote_L]
34	1.705947638	1.746229827e-07	-5.704351125e-08	-22.75441551	9.104840279	-9.017357826	1.0
35	1.705947638	1.746229827e-07	-5.704351125e-08	-24.53463554	-2.794159412	-7.200240612	1.0
36	1.705947638	1.746229827e-07	-5.704351125e-08	-26.38562775	-10.96999645	-5.460936546	1.0
[Schalterplatte_R]
34	0.9175304174	0.3829328418	-0.0410670042	10.25301647	71.34378052	37.73651886	1.0
35	0.907256484	0.3829744458	-0.02669090778	7.767925739	69.85664368	35.10462952	1.0
36	0.8990043998	0.3830160201	-0.01363203861	5.998826981	68.58706665	33.19269943	1.0
[Oberarm_R]
34	1.418636322	-1.210719205e-07	-7.450580597e-08	47.09679031	-54.23792267	-54.98620605	1.0
35	1.418636322	-1.210719205e-07	-7.450580597e-08	47.94395828	-54.58024979	-56.13644409	1.0
36	1.418636322	-1.210719205e-07	-7.450580597e-08	48.71977997	-54.85718918	-57.18766785	1.0
[Unterarm_R]
34	2.028231859	1.676380634e-07	-3.608874977e-07	-0.1957718134	41.11646271	0.02999179065	1.0
35	2.028231859	1.676380634e-07	-3.608874977e-07	-0.3220700026	40.20281219	-0.1315582097	1.0
36	2.028231859	1.676380634e-07	-3.608874977e-07	-0.4381219149	39.4077034	-0.2808770537	1.0
[Vorderpfote_R]
34	1.705937624	7.799826562e-08	1.461012289e-07	4.376884937	79.37612152	3.992282391	1.0
35	1.705937624	7.799826562e-08	1.461012289e-07	4.449428558	79.88102722	4.067352772	1.0
36	1.705937624	7.799826562e-08	1.461012289e-07	4.390571594	80.06762695	4.008265972	1.0
[Schwanz]
34	-0.1037414446	-1.382431947e-08	0.06825273484	-2.220226997e-05	-119.2292099	2.181978562e-05	1.0
35	-0.09562832117	-1.382431947e-08	0.06284288317	-2.220226997e-05	-120.1419525	2.181978562e-05	1.0
36	-0.09004577249	-1.382431947e-08	0.05971217528	-2.220226997e-05	-120.7693024	2.181978562e-05	1.0
[Schwanz_001]
34	0.9104328156	6.868503988e-08	7.788912626e-08	-2.408194405e-06	14.91780186	-5.75290926e-07	1.0
35	0.9104328156	6.868503988e-08	7.788912626e-08	-2.408194405e-06	16.1618309	-5.75290926e-07	1.0
36	0.9104328156	6.868503988e-08	7.788912626e-08	-2.408194405e-06	17.01652908	-5.75290926e-07	1.0
[Schwanz_002]
34	0.7855660319	5.704351125e-08	-1.185253495e-07	8.174235973e-07	-4.070236206	-1.362372615e-07	1.0
35	0.7855660319	5.704351125e-08	-1.185253495e-07	8.174235973e-07	-3.170158863	-1.362372615e-07	1.0
36	0.7855660319	5.704351125e-08	-1.185253495e-07	8.174235973e-07	-2.551502228	-1.362372615e-07	1.0
[Schwanz_003]
34	0.8350355029	6.286426668e-08	-2.072192729e-07	-2.187832479e-06	-4.375397682	1.867661581e-07	1.0
35	0.8350355029	6.286426668e-08	-2.072192729e-07	-2.187832479e-06	-4.851647377	1.867661581e-07	1.0
36	0.8350355029	6.286426668e-08	-2.072192729e-07	-2.187832479e-06	-5.17909193	1.867661581e-07	1.0
[Oberschenkel_L]
34	0.7030183673	-0.5836999416	0.08774927258	-160.4315491	-110.4741287	165.4648438	1.0
35	0.7214801311	-0.5836999416	0.08249890059	-157.4024811	-107.0131683	162.2688293	1.0
36	0.7341525555	-0.5836999416	0.07915355265	-153.3120575	-103.7720718	158.0207214	1.0
[Unterschenkel_L]
34	1.686439037	6.984918599e-08	-6.053597446e-08	-14.0130167	-37.86351776	23.56455231	1.0
35	1.686439037	6.984918599e-08	-6.053597446e-08	-12.79412174	-35.07152557	22.02181625	1.0
36	1.686439037	6.984918599e-08	-6.053597446e-08	-11.62117672	-32.14365005	20.50995255	1.0
[Pfote1_L]
34	1.190900326	6.519258022e-08	1.396983862e-07	2.1755023	33.91964722	-6.07062006	1.0
35	1.190900326	6.519258022e-08	1.396983862e-07	2.239306927	32.73433304	-5.954463005	1.0
36	1.190900326	6.519258022e-08	1.396983862e-07	2.311944246	31.30796242	-5.818170547	1.0
[Pfote2_L]
34	0.9876257777	7.450580597e-08	-5.587935092e-08	-27.73174667	87.11489105	-34.20979691	1.0
35	0.9876257777	7.450580597e-08	-5.587935092e-08	-57.89876175	88.40677643	-64.18815613	1.0
36	0.9876257777	7.450580597e-08	-5.587935092e-08	-129.6016693	88.66164398	-135.7037354	1.0
[Oberschenkel_R]
34	0.4707815945	0.5837000012	-0.03543670848	-14.6611042	-59.19838333	9.126671791	1.0
35	0.4801045656	0.5837000012	-0.05637033284	-13.61221695	-55.4043045	7.890031815	1.0
36	0.4910362065	0.5837000012	-0.07181911916	-12.95271015	-52.37132645	7.078031063	1.0
[Unterschenkel_R]
34	1.68644917	1.164153218e-07	2.793967901e-08	45.22921371	-71.59902954	-52.97782898	1.0
35	1.68644917	1.164153218e-07	2.793967901e-08	52.32492828	-73.14842224	-60.53336334	1.0
36	1.68644917	1.164153218e-07	2.793967901e-08	57.44009399	-73.83169556	-66.10678864	1.0
[Pfote1_R]
34	1.190900087	1.856824383e-07	4.190951941e-08	-2.096819401	30.19272804	6.225327015	1.0
35	1.190900087	1.856824383e-07	4.190951941e-08	-2.138344765	31.28272057	6.14380312	1.0
36	1.190900087	1.856824383e-07	4.190951941e-08	-2.175964594	32.22146988	6.072077274	1.0
[Pfote2_R]
34	0.9876258373	6.984919754e-09	6.635672634e-08	62.84815979	84.46901703	68.06168365	1.0
35	0.9876258373	6.984919754e-09	6.635672634e-08	68.59134674	84.34488678	74.10217285	1.0
36	0.9876258373	6.984919754e-09	6.635672634e-08	70.53908539	84.11958313	76.32905579	1.0
[EndOfFile]
